<svg id="Graphic_Elements" data-name="Graphic Elements" xmlns="http://www.w3.org/2000/svg" viewBox="0 0 1200 1200" transform="rotate(90)">
  <g id="Graphic_Elements-2" data-name="Graphic Elements">
    <path id="path9588" d="M901.15,1011.49C874,999.87,860.07,977.19,873,965.62c7.14-6.4,4.43-17.54-35.1-144.17C788.68,663.8,783,648.91,764.13,629.85c-16.54-16.75-24.07-18.34-107.65-22.7-41.34-2.16-69.28-6.1-76.93-10.87-20.08-12.49-34.75-38.1-37.8-66-5.27-48.11-7.39-55.09-20.87-68.75l-13.49-13.66H397.71c-70.13,0-109.69-1.95-109.69-5.4s-35.95-5.41-98.86-5.41c-54.37,0-102.37-2.25-106.66-5a99,99,0,0,0-15.66-7.94C60.61,421.8,59,415.07,59,391.61c0-16.26,2-31.08,4.49-32.92,7.6-5.64,5-13.51-4.49-13.51-8.35,0-9-3.6-9-51.48,0-50.59.21-51.58,11.78-56.88,6.48-3,15.49-11.06,20-18,5.54-8.46,16.82-14.79,34.36-19.27,35-8.94,52.85-6.3,52.86,7.8,0,10.69,3.43,10.82,325.11,12.38l325.12,1.58,47.63-16.64c26.2-9.15,52.18-18.93,57.74-21.73,8.8-4.43,11.62-2.34,21.84,16.24,6.45,11.73,15.22,22.67,19.49,24.3s10.44,9,13.73,16.39c6.36,14.3,11.18,16.77,15.67,8,4.78-9.31,28.78-5.91,38.18,5.4,12.94,15.57,11.31,34.52-4.33,50.35-7.32,7.42-15.13,14.32-17.35,15.35s-2.81,12.56-1.29,25.63c3.3,28.4,17.07,43.16,44.42,47.57,23.84,3.85,37.57-.56,54.21-17.42,14.76-14.94,21.32-10.72,16.83,10.84-5.27,25.26-23.83,44-58.63,59.32-38.08,16.71-55.93,36.82-57,64.18-1.87,49.06,4.49,71.3,26.28,91.95,13.73,13,24.44,38.43,20.89,49.58-1.74,5.45,16.69,57.51,48,135.63,58.5,145.9,58.31,139.53,4.58,149.13l-32.53,5.81,3,19.55c1.67,10.75,3.36,21.7,3.76,24.33,1,6.63-86.37,29.25-127.27,32.94-25.79,2.32-38.92.79-56-6.54ZM659.65,565.08c13.22-23.38,13.34-57.45.3-85.38-9.56-20.48-10.44-21-34.81-21-50.67.05-77.25,43.42-56.37,92,9.36,21.79,26.94,31.84,56.08,32C647.84,582.93,650.25,581.7,659.65,565.08Zm37.05-6.26c0-13.74-7.57-13.57-12.81.29-7,18.43-6.58,19.8,3.83,13.09,4.94-3.18,9-9.2,9-13.38Zm15.69-46.18c-3.48-13.23-9.35-13.71-15.15-1.25-3.19,6.86-2.4,12.11,2.88,19.12,6.46,8.59,7.7,8.73,11.18,1.25C713.45,527.13,713.94,518.52,712.39,512.64ZM696.7,483.59c0-4.14-3.32-9.06-7.38-10.93-9.33-4.32-11.54-1.66-8,9.58C684.8,493,696.7,494.09,696.7,483.59Zm319.16-192.65c9.81-6.32,11.18-16.27,3.51-25.5-7-8.39-21.77,1.25-21.77,14.17C997.6,296.31,1002.65,299.45,1015.86,290.94Z"/>
  </g>
</svg>
